<?xml version="1.0" encoding="utf-8"?>
<!-- Generator: Adobe Illustrator 16.0.0, SVG Export Plug-In . SVG Version: 6.00 Build 0)  -->
<!DOCTYPE svg PUBLIC "-//W3C//DTD SVG 1.1//EN" "http://www.w3.org/Graphics/SVG/1.1/DTD/svg11.dtd">
<svg version="1.1" id="Layer_1" xmlns="http://www.w3.org/2000/svg" xmlns:xlink="http://www.w3.org/1999/xlink" x="0px" y="0px"
	 width="1323.267px" height="453.116px" viewBox="0 0 1323.267 453.116" enable-background="new 0 0 1323.267 453.116"
	 xml:space="preserve">
<path fill="none" d="M1230.549,288.422c-0.507-0.395-1.014-0.79-1.521-1.185c0.691-2.372,1.491-4.719,2.05-7.121
	c0.957-4.116,3.315-8.715,2.282-12.302c-1.71-5.933-6.249-10.756-8.468-16.933c-1.52-4.231-3.195-8.026-3.083-12.604
	c0.139-5.656-0.085-11.32-0.153-16.98c-0.068-5.733,0.085-11.554-6.642-14.213c-0.514-0.203-0.902-1.003-1.129-1.607
	c-3.032-8.088-6.187-16.136-8.986-24.305c-3.323-9.697-6.271-19.522-9.562-29.231c-0.393-1.159-1.907-1.938-3.433-3.401
	c0,8.631,0.113,16.102-0.074,23.565c-0.052,2.058-0.377,5.256-1.646,5.937c-5.131,2.75-3.893,7.274-2.921,10.827
	c2.817,10.304,2.432,20.738,2.658,31.196c0.09,4.13,0.036,8.534,1.419,12.312c3.724,10.174,7.738,20.146,6.811,31.345
	c-0.078,0.943,2.112,2.706,3.49,3.018c3.791,0.856,5.541,2.81,4.737,6.648c-1.124,5.364-2.156,10.765-3.637,16.034
	c-2.404,8.563-6.485,16.714-5.157,26.077c0.663,4.681-2.251,6.999-6.505,8.455c-7.186,2.459-14.225,5.345-21.831,8.244
	c6.337,5.39,6.161,5.731,0.255,10.18c-6.135,4.619-12.084,9.508-17.822,14.608c-1.055,0.937-1.508,3.8-0.892,5.166
	c4.088,9.05,3.562,10.017-3.219,17.057c-5.972,6.2-14.507,9.993-17.868,18.737c-0.396,1.028-2.128,1.478-3.074,2.372
	c-3.165,2.989-6.27,6.043-9.368,9.101c-4.079,4.024-7.437,9.655-12.331,11.804c-12.051,5.292-21.019,14.172-30.261,22.834
	c-2.098,1.966-2.978,5.231-4.418,7.899c0.502,0.387,1.003,0.773,1.505,1.16c1.459-0.573,3.167-0.839,4.33-1.778
	c3.459-2.793,6.759-5.793,10.021-8.818c7.143-6.623,14.412-12.958,24.639-14.278c8.186-1.057,15.866-3.201,21.387-10.044
	c1.331-1.649,3.207-2.855,4.563-4.488c8.028-9.669,20.173-15.856,24.256-28.913c0.658-2.103,2.605-3.804,3.967-5.684
	c5.564-7.685,13.376-13.769,15.814-23.707c0.674-2.748,3.265-5.416,5.638-7.28c5.451-4.284,11.448-7.867,16.959-12.083
	c4.775-3.652,10.639-6.949,13.461-11.872c6.424-11.203,15.374-18.192,27.461-21.846c7.95-2.402,13.593-8.168,16.951-15.182
	c2.674-5.582,6.618-8.551,11.553-11.399c5.914-3.413,11.46-7.466,17.154-11.258c1.646-1.098,3.274-2.226,4.878-3.386
	c7.997-5.786,16.059-11.489,23.919-17.455c1.87-1.419,3.058-3.736,4.559-5.641c-0.408-0.508-0.816-1.015-1.224-1.522
	c-3.767,1.452-7.878,2.36-11.219,4.483c-4.968,3.155-9.093,7.653-14.103,10.724c-12.898,7.908-25.81,16.012-40.453,20.354
	c-7.538,2.234-13.92,5.354-18.533,12.053C1236.292,286.192,1232.998,287.016,1230.549,288.422z"/>
<path fill="none" d="M352.904,196.04c0.711,0.521,1.421,1.042,2.132,1.562c4.593-4.324,9.186-8.648,13.778-12.973
	c0.676,0.284,1.353,0.569,2.028,0.854c0.328,3.337,1.381,6.795,0.852,9.99c-1.748,10.543-4.077,20.988-6.15,31.479
	c-0.174,0.879-0.501,2.253-0.071,2.646c3.886,3.552,2.519,7.936,2.019,12.105c-0.433,3.612-1.116,7.21-1.927,10.76
	c-1.916,8.383-4.106,16.705-5.92,25.109c-0.932,4.319-1.515,8.749-1.766,13.156c-0.067,1.181,1.724,3.511,2.56,3.465
	c1.401-0.077,3.476-1.356,3.95-2.623c2.774-7.404,5.648-14.832,7.566-22.482c2.459-9.815,4.007-19.857,6.033-29.784
	c0.577-2.826,1.301-5.323,5.434-4.68c1.549,0.241,3.76-1.397,5.104-2.743c2.251-2.256,7.901-2.919,9.119-0.354
	c1.946,4.098,4.947,7.406,7.313,11.021c5.261,8.033,10.129,16.736,11.103,26.83c0.157,1.621,1.418,3.255,2.479,4.646
	c2.421,3.179,5.613,5.903,7.452,9.365c4.08,7.679,6.776,16.182,11.475,23.414c3.315,5.102,4.388,10.287,5.545,15.855
	c0.6,2.889,2.449,5.518,3.733,8.264c0.998-1.878,0.723-3.491,1.232-4.799c0.599-1.538,1.878-2.812,2.863-4.2
	c0.975,1.15,2.017,2.252,2.905,3.466c0.833,1.14,1.505,2.398,2.248,3.605c0.612-0.204,1.224-0.409,1.836-0.613
	c-0.497-3.115-0.516-6.403-1.571-9.317c-5.201-14.367-10.298-28.697-11.708-44.11c-0.362-3.954-1.817-8.222-4.026-11.5
	c-3.5-5.195-6.308-10.368-6.86-16.709c-0.346-3.969-2.375-6.507-6.709-7.292c-5.552-1.006-10.202-3.202-13.416-8.677
	c-4.994-8.503-10.915-16.467-16.539-24.593c-5.461-7.89-2.251-17.178,6.982-19.946c2.515-0.755,5.207-1.192,7.492-2.395
	c7.114-3.741,13.507-7.915,15.589-16.821c1.499-6.409,4.858-12.098,11.553-15.267c6.47-3.062,12.099-7.229,15.934-13.785
	c2.237-3.825,6.085-6.703,9.179-10.035c1.176-1.266,2.267-2.609,3.397-3.918c-0.319-0.396-0.639-0.793-0.958-1.189
	c-1.776,0.65-3.835,0.925-5.284,2.013c-8.806,6.618-17.411,13.504-26.211,20.131c-4.947,3.726-8.731,9.028-15.618,10.189
	c-3.125,0.527-5.984,2.991-8.812,4.813c-3.239,2.088-6.236,4.551-9.473,6.643c-3.226,2.084-6.562,4.018-9.965,5.798
	c-1.408,0.737-3.115,0.901-6.074,1.702c0-6.701-1.955-13.333,0.388-17.61c5.694-10.394,1.354-20.248-0.134-29.856
	c-1.017-6.564-0.723-12.171,0.838-18.32c1.04-4.095,1.018-8.509,1.04-12.782c0.007-1.328-1.132-3.385-2.233-3.791
	c-1.068-0.396-2.794,0.829-4.17,1.473c-1.299,0.608-2.462,1.85-3.783,2.012c-6.388,0.786-6.095,0.91-5.979,7.613
	c0.167,9.612,0.633,19.426-0.985,28.815c-2.612,15.157-6.792,30.046-10.38,45.031c-0.488,2.039-1.42,3.968-2.082,5.969
	C355.78,187.119,354.351,191.582,352.904,196.04z"/>
<path fill="none" d="M1081.877,197.642c-0.696,1.933,0.553,2.912,3.659,2.998c2.391,0.065,4.818,0.652,7.129,1.342
	c4.166,1.242,8.216,3.691,12.392,3.874c4.907,0.215,6.12,3.03,5.526,6.285c-1.323,7.258-3.738,14.31-5.321,21.53
	c-0.615,2.81-1.113,6.256-0.038,8.695c2.073,4.702,2.25,8.887,0.839,13.81c-0.929,3.235-0.106,7.031,0.221,10.55
	c0.29,3.116,1.566,6.233,1.367,9.283c-0.388,5.938-1.636,11.814-2.286,17.744c-0.831,7.584-1.423,15.195-2.118,22.795
	c0.573,0.132,1.146,0.264,1.719,0.396c0.634-0.588,1.642-1.069,1.843-1.78c1.749-6.171,3.953-12.297,4.866-18.604
	c1.498-10.344,0.815-21.171,3.519-31.124c2.426-8.929,6.118-17.234,3.257-26.645c-0.09-0.296-0.06-0.718,0.089-0.982
	c4.153-7.409,3.059-15.367,2.806-23.334c-0.077-2.435,1.263-6.466,2.907-7.042c2.519-0.882,6.676-0.389,8.695,1.273
	c4.583,3.771,9.399,3.874,14.78,3.675c3.306-0.123,6.727,0.766,9.973,1.65c3.591,0.979,7.041,2.473,10.553,3.743
	c-0.02-0.657-0.039-1.315-0.059-1.973c1.699-1.373,3.465-2.675,5.076-4.145c1.211-1.105,2.223-2.428,3.323-3.652
	c-1.272-0.734-2.52-1.519-3.823-2.192c-4.522-2.337-9.958-1.682-14.229-5.8c-2.88-2.777-7.947-3.508-12.387-0.709
	c-1.346,0.849-3.4,0.574-5.121,0.812c-1.021-7.159-1.131-7.182-7.821-6.285c-2.13,0.285-4.321,0.195-6.481,0.152
	c-4.837-0.098-6.507-1.856-6.096-6.8c0.176-2.109,0.913-4.187,1.508-6.245c1.879-6.504,3.815-12.991,5.721-19.488
	c1.85-6.308,4.114-12.536,5.358-18.963c0.663-3.426,0.861-8.242-1.022-10.599c-4.295-5.374-5.283-8.378-1.871-14.393
	c3.185-5.614,6.103-11.381,9.265-17.319c-6.752-1.805-8.564-0.877-10.324,4.113c-0.822,2.334-1.86,4.591-2.772,6.894
	c-2.909,7.339-6.501,14.494-8.539,22.067c-2.904,10.788-4.657,21.886-6.935,32.844c-0.131,0.633-0.732,1.18-0.818,1.807
	c-0.597,4.334-1.707,8.705-1.517,13.015c0.283,6.447-3.13,10.85-9.506,11.005c-1.444,0.035-2.952,0.243-4.304,0.725
	C1090.936,194.05,1087.059,195.633,1081.877,197.642z"/>
<path fill="none" d="M304.402,177.978c-0.984-2.769-2.431-5.103-1.912-5.686c2.11-2.369,4.552-5.309,7.371-6.001
	c5.894-1.446,12.157-1.319,18.163-2.417c2.703-0.493,5.276-2.184,7.643-3.735c0.739-0.484,0.997-2.394,0.724-3.459
	c-0.152-0.592-1.854-1.115-2.852-1.107c-4.994,0.041-9.986,0.308-14.981,0.401c-1.304,0.024-3.29,0.201-3.812-0.522
	c-3.777-5.237-8.54-2.687-12.499-1.204c-4,1.497-9.651,2.062-10.203,7.928c-0.562,5.968-3.799,8.793-9.354,9.737
	c-6.083,1.033-10.688,3.8-12.281,10.316c-1.953,7.989-4.966,15.832-5.896,23.926c-0.866,7.522-4.652,12.693-9.176,18.007
	c-1.281,1.504-1.319,4.066-1.927,6.144c0.48,0.169,0.96,0.337,1.439,0.506c0.832-0.718,1.568-1.617,2.517-2.112
	c1.479-0.772,3.103-1.271,4.665-1.886c0.315,1.703,1.283,3.617,0.815,5.068c-1.104,3.426-2.814,6.668-4.417,9.917
	c-3.058,6.194-1.466,8.823,5.336,8.645c7.145-0.188,10.542,3.868,9.644,11.23c-0.165,1.35,0.057,3.579,0.895,4.083
	c5.248,3.159,5.818,7.982,5.687,13.362c-0.028,1.148,1.278,2.329,1.969,3.495c1.231-0.831,2.974-1.385,3.599-2.543
	c1.954-3.623,2.981-7.831,5.319-11.141c2.572-3.64,6.199-6.534,9.366-9.753c7.184,3.416,11.446-2.426,16.951-4.922
	c3.526-1.599,8.038-1.187,12.121-1.359c5.731-0.241,10.034-4.826,9.77-11.497c-1.585,0.557-3.285,0.715-4.375,1.613
	c-4.392,3.618-8.873,4.006-13.68,1.027c-5.116-3.17-10.047-7.333-16.536-2.994c-0.221,0.148-0.715,0.103-0.971-0.046
	c-5.255-3.039-9.142-0.38-13.449,2.544c-2.292,1.555-6.952,2.872-8.398,1.685c-2.402-1.972-4.621-6.311-4.135-9.182
	c0.843-4.981,3.381-9.856,5.998-14.312c3.051-5.192,3.281-6.455-1.071-10.407c-4.315-3.917-4.934-6.345-1.845-11.215
	c1.902-3.001,4.375-5.764,7.037-8.134C293.249,187.001,299.131,182.353,304.402,177.978z"/>
<path fill="none" d="M221.328,150.812c-0.901,5.727-1.96,11.352-2.579,17.024c-0.201,1.844,0.138,4.397,1.295,5.608
	c2.927,3.061,4.117,6.419,3.153,10.365c-0.697,2.854-2.044,5.546-3.042,8.331c-1.915,5.345-4.992,10.59,1.451,15.478
	c1.745,1.323,2.522,4.71,2.65,7.205c0.237,4.625-0.769,9.32-0.467,13.934c0.511,7.812,1.536,15.597,2.544,23.367
	c0.528,4.066,1.767,8.05,2.165,12.122c0.451,4.617,0.058,9.32,0.581,13.924c0.189,1.663,1.965,3.146,3.017,4.712
	c0.722-1.661,2.108-3.344,2.055-4.98c-0.277-8.47-0.706-16.706,3.203-24.837c3.622-7.532,5.314-15.497,0.742-23.864
	c-1.371-2.509-0.262-6.759,0.588-9.98c0.779-2.952,2.553-5.711,4.225-8.342c2.646-4.165,0.827-6.405-2.632-8.955
	c-2.569-1.895-5.751-4.78-6.084-7.536c-0.94-7.788-1.407-15.714,2.458-23.299c1.219-2.394,0.344-6.02-0.043-9.021
	c-0.451-3.505-1.838-6.919-2.05-10.418c-0.257-4.257-2.355-5.855-6.271-4.007C225.872,148.783,223.426,149.859,221.328,150.812z"/>
<path fill="none" d="M601.41,256.32c1.062-2.54,1.979-3.794,2.06-5.1c0.267-4.315-0.225-8.718,0.405-12.963
	c1.521-10.256,3.476-20.448,5.333-30.652c0.619-3.4,1.579-6.738,2.196-10.139c0.83-4.578,1.655-9.173,2.091-13.798
	c0.12-1.273-1.155-2.679-1.79-4.023c-1.134,0.744-2.907,1.242-3.304,2.271c-3.791,9.819-7.317,19.741-10.999,29.604
	c-0.755,2.024-1.841,3.926-2.775,5.883c-2.076-1.363-4.326-2.533-6.146-4.178c-0.807-0.729-0.888-2.402-1.048-3.678
	c-0.333-2.656-1.31-3.729-4.363-4.14c-2.373-0.318-5.259-2.55-6.426-4.73c-1.662-3.104-1.686-7.038-2.926-10.429
	c-0.953-2.606-2.703-4.921-4.099-7.365c-0.685,0.252-1.369,0.504-2.054,0.756c0,10.067,0.218,20.142-0.125,30.197
	c-0.112,3.289-1.033,6.931-2.746,9.689c-2.239,3.606-3.218,7.21-1.584,10.821c2.35,5.194,4.552,10.223,3.896,16.135
	c-0.075,0.682,1.838,2.162,2.902,2.237c1.179,0.083,3.5-1.015,3.504-1.613c0.049-5.903-0.296-11.809-0.498-17.715
	c-0.163-4.748-0.377-9.498-0.333-14.245c0.008-0.854,1.189-2.42,1.77-2.393c1.102,0.052,2.485,0.768,3.17,1.656
	c1.387,1.795,2.238,3.997,3.573,5.842c3.688,5.096,7.803,9.906,11.196,15.185C595.442,244.342,597.881,249.705,601.41,256.32z"/>
<path fill="none" d="M228.898,86.548c-0.303-0.879-0.446-3.707-1.868-4.697c-1.272-0.885-4.133-0.173-5.977,0.595
	c-3.443,1.433-3.061,4.887-1.937,7.268c2.433,5.151,0.671,9.299-1.323,13.991c-1.448,3.408-1.91,7.551-1.584,11.258
	c0.154,1.75,3.388,3.083,4.869,4.897c2.602,3.187,6.131,5.243,9.702,3.772c2.067-0.852,3.576-4.483,4.197-7.13
	c1.307-5.573,2.071-11.305,2.562-17.014c0.104-1.209-1.897-3.705-2.96-3.723C228.953,95.671,227.768,92.688,228.898,86.548z"/>
<path fill-rule="evenodd" clip-rule="evenodd" fill="none" d="M916.783,0c-2.688,7.381-4.87,14.996-8.167,22.095
	c-7.49,16.128-9.378,33.164-8.579,50.531c0.291,6.326,3.153,12.492,4.188,18.838c1.384,8.489,2.059,17.091,3.173,25.627
	c0.829,6.344,1.048,12.93,3.009,18.927c3.227,9.868,3.59,19.863,3.484,29.988c-0.039,3.832-0.023,7.821,2.868,10.431
	c4.283,3.866,2.812,8.25,2.485,12.817c-0.381,5.354-0.026,10.756-0.262,16.125c-0.215,4.887-0.414,9.829-1.33,14.611
	c-0.703,3.676-2.291,7.24-3.871,10.678c-3.39,7.379-1.189,14.173,2.534,20.382c2.695,4.493,3.317,8.838,2.412,13.719
	c-1.383,7.452,0.441,13.55,5.411,19.721c2.462,3.055,2.793,9.562,1.436,13.619c-3.474,10.386,1.351,18.364,5.509,26.786
	c0.935,1.893,2.198,3.69,2.761,5.688c2.002,7.099,1.35,8.289-5.877,11.421c0-2.593-0.103-4.999,0.022-7.393
	c0.215-4.104-1.708-6.581-5.198-8.656c-5.44-3.233-9.988-7.159-8.951-14.718c0.672-4.896,0.383-9.893-6.008-11.328
	c-0.537-4.606-2.821-9.94-1.265-13.674c3.78-9.065,1.747-15.857-3.781-23.298c-6.419-8.639-9.154-18.724-8.966-29.774
	c0.127-7.463-0.595-15.135-2.316-22.385c-2.261-9.52-2.446-18.664,0.523-27.939c1.502-4.693,2.655-9.505,4.321-14.135
	c3.293-9.152,0.574-16.222-6.502-22.472c-1.906-1.684-3.024-4.916-3.354-7.581c-0.546-4.402,0.127-8.949-0.302-13.378
	c-0.173-1.776-1.902-3.402-2.924-5.097c-1.606,1.262-4.272,2.267-4.648,3.825c-2.752,11.4-8.469,22.564-6.399,34.513
	c2.292,13.235-0.267,24.243-9.974,33.588c-4.817,4.638-4.973,10.938-5.461,17.016c-0.454,5.64-0.566,11.308-1.08,16.939
	c-0.152,1.68-0.923,3.414-1.793,4.898c-6.085,10.375-7.274,21.78-7.343,33.466c-0.012,2.084-0.465,4.165-0.768,6.688
	c-6.559-1.661-6.591-7.031-7.853-11.342c-0.734-2.512-0.521-5.288-0.864-7.929c-0.765-5.879-3.091-10.271-9.754-11.294
	c-3.97-0.608-4.197-4.111-4.432-7.371c-0.459-6.376-1.026-12.745-1.52-19.119c-0.7-9.043-4.234-17.173-7.441-25.53
	c-2.399-6.252-2.94-13.243-4.068-19.946c-0.775-4.612-2.101-8.67-6.906-10.553c-0.155-0.061-0.431-0.087-0.451-0.177
	c-2.237-9.409-14.763-13.863-11.93-26.033c1.156-4.965-0.05-10.557-0.675-15.805c-0.159-1.334-2.148-3.349-3.401-3.43
	c-1.587-0.104-3.977,1.028-4.792,2.372c-2.112,3.482-3.965,7.243-5.182,11.125c-3.619,11.543-6.791,22.922-3.108,35.479
	c1.768,6.025,0.399,13.121-0.244,19.663c-0.646,6.567-2.274,13.032-3.263,19.573c-1.211,8.02-2.443,16.049-3.213,24.117
	c-0.599,6.274-0.613,12.614-0.674,18.927c-0.037,3.852-0.258,7.156-3.603,10.13c-6.374,5.669-9.717,13.365-11.554,21.545
	c-0.623,2.773,0.273,5.887,0.462,8.846c0.462,7.229,1.155,14.456,1.232,21.688c0.024,2.292-1.827,4.545-2.434,6.914
	c-1.624,6.344-2.877,12.787-4.641,19.088c-0.484,1.729-2.249,3.099-3.427,4.633c-0.687-1.713-1.957-3.428-1.953-5.14
	c0.011-5.478,0.926-10.975,0.668-16.426c-0.245-5.199-1.896-10.326-2.229-15.53c-0.269-4.209-0.178-8.677,0.954-12.69
	c2.655-9.414,0.548-17.918-3.105-26.537c-4.915-11.596-4.043-23.03,4.482-32.468c7.993-8.848,10.56-19.186,10.754-30.335
	c0.126-7.225-0.796-14.528-1.891-21.699c-1.907-12.504,0.612-24.081,4.545-35.989c4.754-14.394,7.53-29.438,11.217-44.188
	c0.715-2.859,1.679-5.656,2.74-9.189c2.326,3.064,4.326,5.269,6.391,0.525c0.487-1.119,2.626-1.521,3.178-1.812
	c2.346,2.21,4.03,5.13,5.812,5.19c3.329,0.112,5.323-2.599,5.977-6.124c1.062-5.727,3.568-10.479,7.604-15.047
	c3.041-3.443,4.214-8.942,5.169-13.735c1.754-8.809,7.541-15.125,11.875-22.354c0.551,0.001,1.103,0.002,1.653,0.004
	c0.243,1.631,1.044,3.417,0.64,4.866c-2.404,8.599-5.489,17.023-7.534,25.698c-1.351,5.731-1.81,11.79-1.722,17.688
	c0.038,2.569,1.821,6.093,3.927,7.43c3.456,2.196,3.337,5.115,3.353,8.118c0.02,3.812-0.666,7.626-0.699,11.441
	c-0.036,4.093,0.953,7.73,3.104,11.579c2.068,3.701,2.024,8.784,2.183,13.285c0.123,3.465,0.082,6.347,3.384,8.688
	c1.359,0.964,1.883,3.701,2.028,5.688c1.158,15.718,2.104,31.451,3.213,47.173c0.097,1.369,1.036,2.659,1.323,4.04
	c0.588,2.82,0.923,5.692,1.507,8.514c0.456,2.206,0.66,5.912,1.796,6.257c3.296,1.003,6.112-0.652,6.864-4.51
	c1.494-7.661,3.377-15.272,4.361-22.998c1.049-8.24,0.371-16.769,2.038-24.843c2.009-9.734,3.423-20.885,9.155-28.269
	c9.872-12.715,13.435-26.821,16.521-41.709c1.605-7.745,3.702-15.449,6.363-22.892c1.333-3.729,4.037-7.194,6.805-10.138
	c7.204-7.662,10.174-16.999,10.712-27.037c0.288-5.362,2.461-9.214,5.402-13.327c4.078-5.702,7.468-11.896,11.152-17.881
	C913.45,0,915.116,0,916.783,0z"/>
<path fill-rule="evenodd" clip-rule="evenodd" fill="none" d="M73.215,368.923c-0.828-1.105-2.164-2.118-2.386-3.334
	c-0.593-3.25-1.063-6.602-0.928-9.886c0.199-4.84-2.121-8.036-5.425-11.134c-1.424-1.334-2.527-3.597-2.716-5.54
	c-0.385-3.955,0.061-7.983-0.044-11.977c-0.101-3.838-1.831-6.87-3.797-10.297c-4.856-8.464-8.698-17.604-12.051-26.798
	c-1.814-4.976-0.121-10.203,2.119-15.244c1.25-2.814,1.412-6.85,0.407-9.763c-1.749-5.073-4.836-9.676-7.234-14.539
	c-0.616-1.25-1.427-3.003-1.005-4.074c4.897-12.417,3.313-24.545-1.184-36.621c-2.16-5.8-4.937-11.261-2.476-18.058
	c0.817-2.256-1.426-6.694-3.589-8.744c-5.38-5.099-7.145-10.31-5.848-17.868c0.831-4.841-2.116-10.231-2.74-15.451
	c-0.537-4.496-1.152-9.355-0.028-13.604c2.6-9.821-0.903-17.313-7.609-23.69c-8.398-7.987-10.317-16.039-5.683-27.111
	c3.175-7.587,0.695-16.908-6.746-22.245c-4.765-3.418-4.817-7.376-3.552-12.203c0.656-2.504,2.188-3.603,4.306-2.327
	c3.084,1.857,4.776,0.128,6.911-1.61c4.081-3.321,6.897-8.461,12.703-9.357c3.93-0.606,8.346-2.249,11.773-1.109
	c8.238,2.74,14.516-1.144,20.671-4.833c7.073-4.238,13.033-10.538,20.385-14.03c4.529-2.15,11.219-2.165,16.115-0.586
	c8.212,2.649,15.805,7.263,23.578,11.208c2.318,1.177,4.245,3.131,6.569,4.291c3.796,1.894,7.639,3.695,12.181,1.855
	c1.532-0.62,3.525-0.099,5.665-0.099c0.176,2.873,0.248,5.333,0.494,7.776c0.52,5.17,4.164,7.499,9.26,6.392
	c3.228-0.702,6.571-1.143,9.869-1.185c4.603-0.059,7.361,2.988,7.198,7.583c-0.189,5.325-0.98,10.674-0.63,15.954
	c0.186,2.806,1.508,6.422,3.587,8.029c4.17,3.225,4.912,6.771,4.262,11.591c-0.834,6.185-1.785,12.519-1.285,18.675
	c0.565,6.958-0.572,12.745-4.752,18.472c-2.255,3.089-3.145,7.406-3.863,11.314c-0.622,3.382-0.35,6.507-3.762,9.058
	c-1.987,1.485-2.837,4.942-3.486,7.681c-1.694,7.148-3.363,14.391-9.349,19.192c-2.378,1.908-5.941,2.854-9.077,3.189
	c-5.103,0.548-7.737,3.229-9.859,7.612c-1.204,2.486-3.814,4.336-5.933,6.321c-1.522,1.427-3.737,2.312-4.797,3.977
	c-0.99,1.554-1.839,4.646-1.03,5.599c1.773,2.085,4.602,3.301,7.068,4.756c1.232,0.727,3.208,0.834,3.83,1.846
	c2.929,4.77,5.54,9.738,8.197,14.672c1.571,2.917,3.192,4.534,6.533,1.853c2.541-2.04,4.561-0.519,5.147,2.168
	c1.388,6.356,4.738,8.116,11.165,6.708c7.616-1.668,10.275,5.179,13.816,9.888c1.539,2.046,2.618,4.625,3.249,7.128
	c1.408,5.584,6.766,7.306,10.045,11.021c2.302,2.608,4.592,5.358,6.208,8.405c1.452,2.736,2.378,5.907,2.817,8.989
	c0.625,4.383,3.148,7.109,6.96,8.168c4.86,1.349,7.207,4.938,9.067,8.874c2.327,4.922,4.776,8.843,10.674,10.649
	c4.569,1.398,7.827,5.794,7.94,11.026c0.17,7.918,3.691,14.039,8.78,19.717c6.14,6.85,7.654,15.107,6.393,24.006
	c-0.079,0.559-0.55,1.061-0.684,1.306c-4.907-5.629-10.194-10.785-14.305-16.752c-2.416-3.505-3.818-8.229-4.17-12.527
	c-0.711-8.708-6.246-13.439-13.092-16.42c-6.248-2.72-9.284-7.766-11.625-13.11c-2.562-5.851-5.789-9.983-12.253-11.218
	c-4.006-0.765-6.568-3.282-8.183-7.071c-1.558-3.655-3.305-7.276-5.395-10.649c-3.696-5.966-7.3-7.328-12.866-4.079
	c-4.115,2.402-5.503,1.256-7.192-2.577c-2.377-5.397-5.328-10.552-8.23-15.699c-0.56-0.993-2.088-2.165-3.062-2.076
	c-4.546,0.413-7.769-1.99-10.898-4.603c-3.094-2.583-6.03-2.338-9.422-0.484c-2.564,1.401-5.289,1.857-6.924-1.833
	c-0.996-2.248-2.674-4.184-3.836-6.371c-3.696-6.958-8.877-10.658-17.219-9.075c-1.922,0.365-4.387-0.771-6.256-1.829
	c-2.236-1.267-4.199-3.085-6.103-4.855c-2.641-2.453-4.578-6.544-9.177-4.505c-4.781,2.119-7.534,7.805-6.446,13.299
	c0.603,3.045,1.73,6.047,3.041,8.874c1.542,3.328,2.322,6.265,0.458,9.92c-0.988,1.938-1.276,5.492-0.141,7.037
	c5.23,7.111,3.183,14.173-0.117,20.688c-3.952,7.804-1.63,14.451,2.809,20.348c4.938,6.56,8.489,12.475,4.891,21.141
	c-2.444,5.887-0.536,12.23,2.627,17.678c2.254,3.882,1.691,7.714-1.218,9.853c-7.043,5.179-7.305,12.054-6.584,19.548
	c0.092,0.959-0.103,1.946-0.165,2.92C74.108,368.39,73.662,368.656,73.215,368.923z M54.939,72.816
	c-5.154-0.276-9.711-1.826-12.341,2.729c-2.794,4.842-4.134,10.831-0.514,15.067c3.63,4.248,3.689,8.328,3.492,13.066
	c-0.111,2.653-0.209,5.396,0.335,7.96c0.451,2.13,1.331,4.744,2.924,5.949c4.745,3.588,6.272,7.137,4.449,12.824
	c-1.686,5.262,0.096,9.624,4.386,13.042c1.793,1.429,3.168,3.975,3.695,6.253c0.66,2.857,0.044,5.986,0.389,8.95
	c0.195,1.676,0.75,3.942,1.947,4.748c3.399,2.287,3.328,4.907,1.948,8.135c-0.649,1.517-1.656,3.189-1.491,4.679
	c0.303,2.735,0.625,6.157,2.356,7.794c1.101,1.041,4.743-0.758,7.272-1.04c2.917-0.325,6.554-1.572,8.675-0.343
	c7.367,4.272,10.481,4.082,15.521-2.244c4.256-5.343,10.269-7.688,16.817-8.302c5.291-0.496,9.999-3.897,11.034-9.072
	c2.021-10.106,3.533-20.143,12.28-27.582c4.926-4.189,4.363-13.919,0.884-20.073c-0.812-1.437-0.982-4.058-0.204-5.429
	c3.555-6.263,3.363-7.425-2.219-12.089c-4.401-3.677-8.344-7.219-7.751-14.337c0.622-7.463-6.407-12.801-12.309-10.793
	c-6.781,2.308-7.635,1.482-11.051-5.331c-1.321-2.634-4.708-5.491-7.479-5.872c-5.457-0.749-11.19,0.703-16.716,0.211
	c-4.301-0.384-7.378,0.688-10.543,3.381C65.879,69.222,61.827,75.47,54.939,72.816z"/>
<path fill-rule="evenodd" clip-rule="evenodd" fill="none" d="M936.765,260.7c0.367-2.967,1.38-6.026,0.966-8.88
	c-0.844-5.818-1.287-12.184-4.059-17.106c-3.19-5.666-2.928-9.79,0.188-15.007c2.386-3.993,4.147-8.52,5.322-13.034
	c1.578-6.065,5.11-10.016,10.179-13.468c3.355-2.285,5.644-6.104,8.53-9.12c3.359-3.509,6.334-7.771,10.389-10.147
	c9.423-5.521,17.714-0.863,25.327,4.747c3.791,2.794,6.099,6.521,6.546,11.688c0.389,4.48,3.209,8.788,3.391,13.235
	c0.181,4.471-0.614,9.523-2.673,13.429c-4.334,8.22-2.32,14.907,2.931,21.467c7.168,8.954,6.866,14.385-0.935,22.938
	c-2.281,2.501-3.88,5.612-6.037,8.242c-5.533,6.743-11.489,12.846-21.273,12.407c-1.291-0.059-2.781,0.082-3.877,0.682
	c-4.463,2.445-8.136,3.043-9.902-3.087c-0.198-0.688-0.987-1.435-1.679-1.713c-5.084-2.042-10.067-4.77-15.364-5.731
	c-6.345-1.151-7.463-1.474-7.774-8.018c-0.056-1.163-0.008-2.331-0.008-3.497C936.89,260.718,936.828,260.709,936.765,260.7z
	 M971.724,261.563c11.021-0.788,14.41-5.807,9.356-14.735c-2.666-4.712-2.093-8.746-0.54-13.214
	c0.543-1.562,1.214-3.089,1.646-4.681c1.206-4.443-1.132-9.184-5.284-10.902c-5.306-2.195-6.84-4.652-5.964-10.224
	c0.513-3.26,1.527-6.438,2.104-9.689c0.67-3.785-1.404-5.437-5.02-4.177c-6.983,2.436-10.666,7.475-10.344,14.857
	c0.16,3.646-0.49,6.361-3.169,9.287c-2.713,2.965-4.975,7.09-5.618,11.004c-0.726,4.418,0.15,9.268,1.188,13.729
	c0.452,1.942,2.79,4.357,4.718,4.866c4.66,1.229,7.455,3.731,8.819,8.243C964.851,260.009,967.177,262.706,971.724,261.563z"/>
<path fill-rule="evenodd" clip-rule="evenodd" fill="none" d="M1038.53,218.241c-8.217,7.997-6.102,16.381-5.704,24.367
	c0.333,6.713-0.22,12.996-2.912,19.434c-1.971,4.714-1.354,10.458-2.366,15.65c-0.438,2.251-2.073,4.269-3.165,6.392
	c-0.807-2.263-2.101-4.48-2.314-6.798c-0.396-4.268-0.265-8.597-0.146-12.895c0.1-3.629-0.178-7.468,0.913-10.822
	c1.704-5.238,0.087-9.712-1.271-14.533c-0.776-2.757-0.726-5.917-0.318-8.792c0.432-3.057,2.121-5.937,2.545-8.992
	c0.563-4.059-0.288-7.456-4.594-9.907c-1.971-1.122-3.61-5.022-3.373-7.466c1.443-14.857,3.555-29.647,5.257-44.481
	c0.594-5.185,0.658-10.43,0.965-15.647c0.518-0.078,1.035-0.156,1.553-0.233c0.699,4.323,1.412,8.646,2.096,12.972
	c0.77,4.869,1.418,9.761,2.352,14.597c0.174,0.899,1.786,2.386,2.162,2.229c1.533-0.64,3.257-1.527,4.16-2.841
	c2.89-4.201,5.375-8.678,8.16-12.954c1.259-1.934,2.753-3.744,4.327-5.435c2.281-2.451,4.364-3.356,8.199-1.673
	c3.879,1.702,8.74,1.512,13.173,1.53c7.46,0.032,9.102,2.092,6.73,9.077c-0.391,1.152-0.463,2.811,0.086,3.815
	c2.047,3.751,3.877,7.835,6.756,10.878c10.238,10.824,3.33,22.581-7.353,26.349c-6.966,2.456-13.529,6.331-19.843,10.262
	c-4.292,2.672-6.506,8.797,0.213,13.897c4.077,3.094,7.203,7.516,10.452,11.584c1.027,1.286,1.638,3.42,1.462,5.061
	c-0.606,5.641,0.319,10.289,4.223,14.99c6.344,7.642,6.566,17.27,5.407,26.631c-0.894,7.223,2.116,13.195,4.524,19.462
	c0.587,1.527,1.756,2.982,1.839,4.515c0.102,1.907-0.646,3.859-1.026,5.793c-1.633-1.069-3.697-1.821-4.786-3.293
	c-1.225-1.656-1.812-3.911-2.256-5.995c-1.747-8.197-3.136-16.477-5.058-24.631c-0.933-3.96-2.062-8.182-4.304-11.464
	c-5.067-7.423-9.885-15.542-16.654-21.139c-7.834-6.477-4.544-14.644-6.571-21.934
	C1041.376,223.305,1039.869,221.037,1038.53,218.241z M1057.989,169.066c-10.043,1.046-10.821,1.658-14.698,10.593
	c-0.564,1.3-2.109,2.354-3.435,3.111c-4.132,2.355-5.375,6.248-2.639,10.263c2.626,3.854,5.484,7.602,8.673,10.988
	c0.891,0.945,3.689,1.166,4.969,0.493c6.364-3.348,9.533-10.851,8.6-17.947c-0.28-2.126,0.489-4.632,1.472-6.622
	c1.347-2.729,3.354-5.13,5.079-7.672C1063.335,171.204,1060.663,170.136,1057.989,169.066z"/>
<path fill-rule="evenodd" clip-rule="evenodd" fill="none" d="M643.163,248.729c-1.242,2.432-2.462,4.875-3.731,7.292
	c-3.115,5.937-9.107,7.604-15.252,4.475c-2.117-1.078-4.495-1.64-6.747-2.454c-3.357-1.214-5.824-3.125-5.553-7.162
	c0.433-6.47,0.792-12.945,1.346-19.404c0.106-1.23,0.652-2.773,1.542-3.532c6.231-5.322,10.363-12.913,18.362-16.384
	c3.934-1.707,4.943-5.605,5.658-9.766c0.859-4.999,2.816-9.8,4.102-14.737c2.08-7.995,3.972-16.04,5.998-24.05
	c0.973-3.848,1.763-7.79,3.259-11.434c0.644-1.568,2.869-2.486,4.376-3.7c0.629,1.988,2.053,4.119,1.727,5.936
	c-0.757,4.214-2.475,8.244-3.587,12.407c-1.281,4.796-0.946,9.346,1.349,14.014c1.23,2.502,1.89,6.282,0.904,8.716
	c-6.017,14.849-5.891,30.364-4.673,45.731c0.597,7.529,4.439,14.781,6.619,22.217c0.877,2.992,1.521,6.122,1.685,9.221
	c0.067,1.28-1.231,3.561-2.226,3.753c-1.544,0.298-4.121-0.273-4.904-1.41c-1.817-2.64-2.915-5.802-4.137-8.819
	c-1.483-3.665-2.794-7.399-4.179-11.103C644.454,248.599,643.808,248.664,643.163,248.729z M641.995,232.446
	c-0.182-1.81,0.133-3.894-0.677-5.356c-0.894-1.613-2.867-3.817-4.283-3.757c-7.829,0.336-15.698,13.441-12.801,20.747
	c1.529,3.857,6.1,5.754,9.22,3.131C637.945,243.436,642.874,239.531,641.995,232.446z"/>
<path fill-rule="evenodd" clip-rule="evenodd" fill="none" d="M509.076,267.081c-1.717-4.967-4.026-9.272-4.494-13.769
	c-0.356-3.422,1.412-7.161,2.612-10.629c2.634-7.611,5.865-15.037,8.1-22.756c0.853-2.944,0.168-6.639-0.741-9.719
	c-1.449-4.909-1.334-9.37,1.137-13.872c1.026-1.869,1.543-4.01,2.395-5.982c1.117-2.588,2.306-4.393,5.841-4.997
	c2.526-0.432,5.262-3.608,6.567-6.227c1.741-3.493,1.867-7.759,3.324-11.439c0.713-1.802,2.866-3.033,4.368-4.523
	c0.773,1.747,1.931,3.426,2.26,5.252c2.689,14.968,4.095,30.274,8.123,44.862c4.077,14.762,6.1,29.581,7.046,44.7
	c0.094,1.494,0.098,2.997,0.072,4.494c-0.011,0.643-0.208,1.281-0.44,2.606c-1.467-0.446-3.481-0.48-3.832-1.262
	c-2.132-4.746-3.997-9.623-5.74-14.531c-3.178-8.946-5.092-18.519-14.16-24.104c-2.888-1.778-4.358,0.066-5.184,1.695
	c-2.662,5.248-7.744,9.558-6.707,16.381c0.118,0.773-0.642,1.932-1.327,2.531c-3.292,2.883-4.375,6.46-3.704,10.669
	C515.419,261.646,511.69,264.043,509.076,267.081z M523.797,212.616c4.791,1.504,8.721,2.737,13.279,4.169
	c0.323-2.496,1.155-5.261,0.926-7.935c-0.45-5.247-1.256-10.496-2.418-15.63c-0.39-1.722-2.314-3.097-3.537-4.63
	c-0.541,0.086-1.081,0.172-1.622,0.258C527.816,196.88,522.638,204.136,523.797,212.616z"/>
</svg>
